<svg xmlns="http://www.w3.org/2000/svg" xmlns:xlink="http://www.w3.org/1999/xlink" viewBox="0 0 78.144 8.001" height="30.24" width="295.347" fill="#ffffff"><path d="M20.183 1.704q.275.56.275 1.25 0 .688-.275 1.25-.275.55-.71.878-.423.328-.9.508-.476.17-.92.17H16.33v1.196q0 .243-.02.37-.01.116-.095.275-.085.16-.286.222-.2.063-.54.063-.275 0-.455-.053-.18-.053-.275-.127-.095-.074-.148-.212-.042-.148-.053-.243 0-.106 0-.307V1.07q0-.243.01-.36.02-.127.106-.286.085-.16.286-.222.2-.063.54-.063h2.265q.444 0 .9.18.476.17.9.497.434.328.71.89zm-1.587 1.238q0-.455-.307-.688Q17.98 2 17.653 2H16.33v1.873h1.333q.317 0 .624-.233.307-.233.307-.71z"/><use xlink:href="#B"/><path d="M32.824 3.217h1.863q.286.01.455.085.18.063.243.212.074.138.085.254.02.106.02.34v2.328q0 .34-.296.646-.296.307-.656.497-.847.423-2 .423-1.577 0-2.74-1.185-1.164-1.196-1.164-2.9 0-1.65 1.185-2.773Q30.994 0 32.602 0q1.1 0 2.064.614.2.138.296.212.106.074.2.212.095.127.095.275 0 .243-.243.582-.413.56-.75.56-.2 0-.56-.243-.53-.34-1.143-.34-.804 0-1.43.57-.624.56-.624 1.482 0 .9.635 1.556.635.635 1.44.635.582 0 1.048-.2V4.773h-.836q-.2 0-.296-.01-.085-.02-.2-.085-.106-.074-.148-.233-.042-.17-.042-.455 0-.275.042-.444.053-.17.18-.233.127-.063.212-.074.095-.02.296-.02zM45.63.18q.7.254.7.677 0 .138-.127.52L44.18 7.25q-.02.074-.074.18-.053.106-.286.286-.222.17-.53.17-.317 0-.55-.17-.222-.18-.296-.35l-.063-.18-1.175-3.47-1.175 3.47q-.01.032-.032.085-.01.042-.085.16-.074.116-.17.212-.095.095-.265.17-.16.074-.36.074-.296 0-.52-.16-.212-.16-.286-.317l-.074-.16-2.04-5.875q-.116-.35-.116-.52 0-.423.7-.667.307-.106.52-.106.286 0 .413.17.138.17.243.52l1.164 3.535 1.15-3.482q.01-.032.02-.074.02-.042.095-.16.074-.127.16-.212.095-.095.265-.17.17-.074.36-.074.35 0 .582.18.233.17.296.34l.063.17 1.154 3.503L44.443.772q.085-.243.138-.36.053-.116.2-.222.148-.116.35-.116.222 0 .508.106zm1.27.9q0-.243.01-.36.02-.127.106-.286.085-.16.286-.222.2-.063.54-.063.275 0 .455.053.18.053.275.127.095.074.138.222.053.138.053.243.01.095.01.296v5.884q0 .254-.02.37-.01.116-.095.275-.085.16-.286.222-.2.063-.54.063-.275 0-.455-.053-.18-.053-.275-.127-.095-.074-.148-.212-.042-.148-.053-.243 0-.106 0-.307z"/><use xlink:href="#B" x="28.483"/><path d="M61.3 3.217h1.863q.286.01.455.085.18.063.243.212.074.138.085.254.02.106.02.34v2.328q0 .34-.296.646-.296.307-.656.497-.847.423-2 .423-1.577 0-2.74-1.185Q57.1 5.62 57.1 3.917q0-1.65 1.185-2.773Q59.478 0 61.086 0q1.1 0 2.064.614.2.138.296.212.106.074.2.212.095.127.095.275 0 .243-.243.582-.413.56-.75.56-.2 0-.56-.243-.53-.34-1.143-.34-.804 0-1.43.57-.624.56-.624 1.482 0 .9.635 1.556.635.635 1.44.635.582 0 1.048-.2V4.773h-.836q-.2 0-.296-.01-.085-.02-.2-.085-.106-.074-.148-.233-.042-.17-.042-.455 0-.275.042-.444.053-.17.18-.233.127-.063.212-.074.095-.02.296-.02zM9.024 1.252A1.37 1.37 0 0 0 7.7.18H-.1c.172.75.846 1.313 1.65 1.313h3.428v.756H.64c.172.75.846 1.313 1.65 1.313h3.504v.756H1.457c.172.75.846 1.313 1.65 1.313h6.88zm0 0"/><path d="M11.754 3.224a1.9 1.9 0 0 0-.66-1.067c-.333-.27-.755-.417-1.184-.417h-.004l1.02 4.647H3.88c.287.862 1.102 1.485 2.06 1.485h6.835zM69.02 1.158c.137-.622.698-1.073 1.335-1.073h7.8c-.172.75-.846 1.313-1.65 1.313h-3.428v.756h4.336c-.172.75-.846 1.313-1.65 1.313H72.25v.756h4.336c-.172.75-.846 1.313-1.65 1.313h-6.88zm0 0"/><path d="M66.3 3.13c.092-.42.327-.798.66-1.067s.755-.417 1.184-.417h.004l-1.02 4.647h7.045c-.287.862-1.102 1.485-2.06 1.485H65.27zm0 0"/><defs ><path id="B" d="M27.007.148q.265 0 .444.053.2.053.275.127.095.074.138.222.053.138.053.243.01.095.01.296v5.874q0 .254-.02.37-.01.116-.095.275-.085.16-.286.222-.2.063-.54.063-.413 0-.57-.063-.16-.063-.265-.2-2.38-3.175-3.133-4.15v3.482q0 .254-.02.37-.01.116-.095.275-.085.16-.286.222-.2.063-.54.063-.328 0-.53-.063-.2-.063-.275-.222-.085-.16-.106-.286-.01-.127-.01-.37V1.047q0-.243.02-.36.02-.116.095-.265.085-.148.286-.212.2-.063.54-.063.296 0 .476.063.2.053.265.127.074.063.2.212l.053.063q2.233 3.037 2.984 4.01V1.047q0-.243.02-.36.02-.116.095-.265.085-.148.286-.212.2-.063.54-.063z"/></defs></svg>